<svg height="140" viewBox="0 0 740 1008" fill="none" xmlns="http://www.w3.org/2000/svg">
<path d="M251.94 937.045H200.685V939.187C200.685 948.163 203.082 955.201 207.876 960.301C212.772 965.299 219.402 967.798 227.766 967.798C234.396 967.798 240.618 966.676 246.432 964.432L248.268 970.552C245.616 971.674 242.403 972.541 238.629 973.153C234.957 973.867 231.183 974.224 227.307 974.224C222.513 974.224 217.974 973.51 213.69 972.082C209.508 970.654 205.836 968.461 202.674 965.503C199.512 962.443 197.013 958.618 195.177 954.028C193.341 949.336 192.423 943.726 192.423 937.198C192.423 931.588 193.188 926.488 194.718 921.898C196.248 917.308 198.441 913.432 201.297 910.27C204.153 907.006 207.519 904.507 211.395 902.773C215.271 901.039 219.606 900.172 224.4 900.172C228.48 900.172 232.203 900.937 235.569 902.467C239.037 903.895 241.944 905.986 244.29 908.74C246.738 911.494 248.625 914.809 249.951 918.685C251.277 922.561 251.94 926.845 251.94 931.537V937.045ZM243.678 930.619C243.678 927.661 243.321 924.754 242.607 921.898C241.893 918.94 240.72 916.339 239.088 914.095C237.558 911.851 235.518 910.066 232.968 908.74C230.52 907.312 227.511 906.598 223.941 906.598C217.719 906.598 212.517 908.689 208.335 912.871C204.255 917.053 201.807 922.969 200.991 930.619H243.678ZM269.635 973V901.09H274.837L276.673 915.472C278.407 910.882 281.365 907.21 285.547 904.456C289.729 901.6 294.421 900.172 299.623 900.172C302.071 900.172 304.213 900.376 306.049 900.784C307.885 901.192 309.313 901.651 310.333 902.161L308.803 909.199C307.579 908.689 306.202 908.23 304.672 907.822C303.142 907.414 301.357 907.21 299.317 907.21C296.359 907.21 293.554 907.72 290.902 908.74C288.352 909.76 286.057 911.341 284.017 913.483C282.079 915.625 280.498 918.328 279.274 921.592C278.152 924.754 277.591 928.528 277.591 932.914V973H269.635ZM323.723 973V901.09H328.925L330.761 915.472C332.495 910.882 335.453 907.21 339.635 904.456C343.817 901.6 348.509 900.172 353.711 900.172C356.159 900.172 358.301 900.376 360.137 900.784C361.973 901.192 363.401 901.651 364.421 902.161L362.891 909.199C361.667 908.689 360.29 908.23 358.76 907.822C357.23 907.414 355.445 907.21 353.405 907.21C350.447 907.21 347.642 907.72 344.99 908.74C342.44 909.76 340.145 911.341 338.105 913.483C336.167 915.625 334.586 918.328 333.362 921.592C332.24 924.754 331.679 928.528 331.679 932.914V973H323.723ZM433.137 936.28C433.137 942.298 432.321 947.704 430.689 952.498C429.057 957.19 426.762 961.168 423.804 964.432C420.948 967.594 417.582 970.042 413.706 971.776C409.83 973.408 405.597 974.224 401.007 974.224C396.519 974.224 392.286 973.459 388.308 971.929C384.432 970.297 381.066 967.951 378.21 964.891C375.354 961.831 373.11 958.057 371.478 953.569C369.846 948.979 369.03 943.726 369.03 937.81C369.03 931.792 369.846 926.437 371.478 921.745C373.212 917.053 375.558 913.126 378.516 909.964C381.474 906.7 384.942 904.252 388.92 902.62C392.898 900.988 397.131 900.172 401.619 900.172C406.107 900.172 410.289 900.937 414.165 902.467C418.041 903.997 421.356 906.292 424.11 909.352C426.966 912.412 429.159 916.186 430.689 920.674C432.321 925.162 433.137 930.364 433.137 936.28ZM424.875 937.045C424.875 931.741 424.212 927.202 422.886 923.428C421.56 919.552 419.775 916.39 417.531 913.942C415.389 911.392 412.89 909.556 410.034 908.434C407.178 907.21 404.22 906.598 401.16 906.598C398.1 906.598 395.142 907.21 392.286 908.434C389.43 909.556 386.88 911.392 384.636 913.942C382.392 916.39 380.607 919.552 379.281 923.428C377.955 927.202 377.292 931.741 377.292 937.045C377.292 942.655 377.955 947.398 379.281 951.274C380.709 955.15 382.545 958.312 384.789 960.76C387.033 963.208 389.583 964.993 392.439 966.115C395.397 967.237 398.406 967.798 401.466 967.798C404.526 967.798 407.433 967.288 410.187 966.268C413.043 965.146 415.542 963.361 417.684 960.913C419.928 958.465 421.662 955.303 422.886 951.427C424.212 947.449 424.875 942.655 424.875 937.045ZM450.874 973V901.09H456.076L457.912 915.472C459.646 910.882 462.604 907.21 466.786 904.456C470.968 901.6 475.66 900.172 480.862 900.172C483.31 900.172 485.452 900.376 487.288 900.784C489.124 901.192 490.552 901.651 491.572 902.161L490.042 909.199C488.818 908.689 487.441 908.23 485.911 907.822C484.381 907.414 482.596 907.21 480.556 907.21C477.598 907.21 474.793 907.72 472.141 908.74C469.591 909.76 467.296 911.341 465.256 913.483C463.318 915.625 461.737 918.328 460.513 921.592C459.391 924.754 458.83 928.528 458.83 932.914V973H450.874ZM542.141 910.117C537.041 907.771 531.482 906.598 525.464 906.598C519.956 906.598 515.825 907.771 513.071 910.117C510.317 912.361 508.94 915.268 508.94 918.838C508.94 922.408 510.113 925.162 512.459 927.1C514.805 928.936 518.936 930.721 524.852 932.455L529.442 933.832C535.256 935.566 539.693 938.116 542.753 941.482C545.813 944.848 547.343 948.979 547.343 953.875C547.343 956.731 546.782 959.434 545.66 961.984C544.538 964.432 542.906 966.574 540.764 968.41C538.622 970.246 535.919 971.674 532.655 972.694C529.493 973.714 525.821 974.224 521.639 974.224C517.049 974.224 513.02 973.816 509.552 973C506.084 972.286 503.024 971.317 500.372 970.093L502.514 963.82C505.166 965.146 507.92 966.166 510.776 966.88C513.632 967.492 516.998 967.798 520.874 967.798C526.688 967.798 531.176 966.676 534.338 964.432C537.5 962.188 539.081 958.975 539.081 954.793C539.081 951.529 537.908 948.724 535.562 946.378C533.318 943.93 529.289 941.788 523.475 939.952L518.579 938.422C506.645 934.648 500.678 928.375 500.678 919.603C500.678 916.747 501.239 914.146 502.361 911.8C503.585 909.352 505.217 907.312 507.257 905.68C509.399 903.946 511.898 902.62 514.754 901.702C517.712 900.682 520.976 900.172 524.546 900.172C527.81 900.172 531.176 900.427 534.644 900.937C538.112 901.447 541.274 902.416 544.13 903.844L542.141 910.117Z" fill="#777"/>
<path d="M0 370C0 70 173 0 370 0C567 0 740 70 740 370C740 670 567 740 370 740C173 740 0 670 0 370Z" fill="#FAFA00"/>
<path d="M346.787 183H395.467L544.473 557H487.483L446.521 453.111H292.765L252.397 557H196L346.787 183ZM307.606 409.775H430.492L405.559 345.067C398.831 328.049 392.696 311.624 387.156 295.794C381.615 279.963 376.074 263.737 370.533 247.114H369.346C363.805 263.737 358.067 279.765 352.13 295.2C346.194 310.635 339.861 327.257 333.133 345.067L307.606 409.775Z" fill="white"/>
</svg>
